<svg width="255" height="281" viewBox="0 0 251 283" fill="none" xmlns="http://www.w3.org/2000/svg">
<path d="M147.074 26.987C147.836 27.601 147.515 29.0079 146.426 29.1626C145.163 29.3432 143.891 29.4642 142.614 29.5252C145.185 33.6284 147.401 37.8984 149.246 42.2986C150.782 45.8424 154.457 55.3137 154.457 55.3137C152.23 55.0332 149.627 53.8632 147.379 53.1767C144.15 52.2237 140.991 51.0935 137.921 49.7924L145.718 92.8553L145.685 93.4983C146.192 93.2663 146.633 93.068 146.959 92.9472C148.974 92.1784 151.092 108.573 151.092 108.573C151.092 108.573 162.455 112.276 167.922 114.428C175.822 117.537 182.933 120.152 190.273 124.199C204.598 132.104 217.981 140.153 229.393 151.438C230.76 152.787 232.17 154.126 233.542 155.494C236.983 149.692 238.796 142.827 240.076 136.784C242.008 127.625 242.397 118.263 241.23 109.003C238.949 90.7619 230.945 72.9024 218.014 58.5433C205.213 44.3292 188.008 33.4027 168.934 26.7791C160.073 23.7057 150.857 21.5056 141.455 20.2184C143.034 22.805 144.803 25.1595 147.074 26.987Z" fill="#CAE2FB"/>
<path d="M19.0831 159.86C34.9444 141.662 55.6458 127.245 79.3296 117.904C83.3261 116.323 91.1884 113.529 93.3336 110.521C93.3336 110.396 95.3918 104.314 96.5352 100.924C97.5043 98.0527 98.4517 97.1389 100.074 96.9939V96.9649C100.074 96.9649 99.5679 79.5985 99.3392 75.1651C99.0561 69.7067 98.6477 64.2338 98.6151 58.727H98.577C96.8673 58.2822 95.8546 56.0776 95.1413 54.8012C94.2838 53.2869 93.5699 51.7118 93.0069 50.0922C92.7728 49.4202 92.5714 48.7433 92.3862 48.0616H92.653C87.9487 47.8392 84.5947 47.3606 83.2172 46.6499C81.2071 45.4593 79.7762 43.6398 79.2098 41.5541C78.4204 38.0586 81.3388 34.8435 84.818 34.0699C86.7404 33.6692 88.7139 33.4952 90.6874 33.5526C90.6439 31.5704 90.6439 29.5833 90.6874 27.6059C90.6874 26.0636 90.7637 24.5068 90.9161 22.9597C75.0337 27.2481 60.7793 35.0078 49.6283 46.5338C42.4793 53.9261 36.6425 62.2854 31.2848 70.7606C25.6168 79.7291 20.575 89.0166 16.9052 98.802C9.90318 117.421 8.16629 138.398 17.4006 156.708C17.9016 157.776 18.4787 158.825 19.0831 159.86Z" fill="#CAE2FB"/>
<path d="M61.3618 259.126C56.3907 255.123 54.1094 248.973 51.4795 243.38C49.0022 238.134 45.6155 227.256 45.6155 227.256C45.6155 227.256 30.7894 235.842 29.4989 240.696C25.0887 237.829 13.415 241.214 9.00477 243.791C13.8452 242.775 22.1975 235.286 17.6838 230.287C16.1756 228.619 6.71251 223.277 3.59265 225.235C-1.01909 228.136 7.46389 230.553 9.75615 230.495C22.5187 230.224 15.6692 213.438 8.04649 210.349C12.0647 212.65 14.5203 215.449 19.7528 214.942C25.6277 214.371 29.6242 209.624 30.8111 204.915" stroke="#000F60" stroke-width="3" stroke-linecap="round" stroke-linejoin="round"/>
<path d="M29.4935 240.696C29.1614 242.456 30.0707 248.006 30.675 250.027C31.8079 253.689 33.5065 257.194 35.7223 260.441C37.1068 262.504 38.9526 264.294 41.1457 265.699C43.3388 267.104 45.8328 268.095 48.474 268.612C48.7789 273.258 47.7172 276.609 45.9749 280.912" stroke="#000F60" stroke-width="3" stroke-linecap="round" stroke-linejoin="round"/>
<path d="M61.3618 259.45C61.0079 261.331 50.7935 267.089 48.18 268.554" stroke="#000F60" stroke-width="3" stroke-linecap="round" stroke-linejoin="round"/>
<path d="M116.556 207.724C113.016 207.279 109.82 205.562 105.851 205.471C103.357 205.413 98.5932 208.681 99.0615 210.861" stroke="#000F60" stroke-width="3" stroke-linecap="round" stroke-linejoin="round"/>
<path d="M46.1165 228.764C46.1165 228.764 50.6683 223.606 52.9388 220.743C57.0006 215.623 61.3401 210.445 65.9137 205.649C72.5835 198.663 80.2226 191.377 90.7092 189.922C99.5189 188.704 107.517 190.546 115.211 194.177" stroke="#000F60" stroke-width="3" stroke-linecap="round" stroke-linejoin="round"/>
<path d="M91.7546 208.072C98.3864 210.141 102.742 212.326 108.029 216.619C110.506 218.621 112.624 222.16 112.624 225.467C112.624 228.774 110.006 232.095 106.804 233.067" stroke="#000F60" stroke-width="3" stroke-linecap="round" stroke-linejoin="round"/>
<path d="M89.9197 217.499C102.367 221.44 119.469 243.887 97.9453 248.722" stroke="#000F60" stroke-width="3" stroke-linecap="round" stroke-linejoin="round"/>
<path d="M60.9916 258.474C71.4292 259.441 95.8055 237.312 83.2825 238.032C70.7595 238.753 72.0608 254.954 83.1791 257.014C93.9434 259.03 101.806 246.401 99.41 238.158C98.3646 234.542 93.0559 230.906 89.5549 230.838" stroke="#000F60" stroke-width="3" stroke-linecap="round" stroke-linejoin="round"/>
<path d="M122.147 121.917C122.48 126.49 109.292 149.649 115.271 152.09C117.383 152.956 118.75 149.915 120.857 150.156C122.665 150.379 124.331 153.081 124.445 154.474C124.919 160.338 112.004 171.507 117.808 171.937C123.612 172.367 128.126 174.514 125.033 181.64" stroke="#000F60" stroke-width="3" stroke-linecap="round" stroke-linejoin="round"/>
<path d="M169.757 221.73C175.8 224.075 176.465 227.048 178 230.834C180.472 236.949 181.419 245.265 191.732 244.492" stroke="#000F60" stroke-width="3" stroke-linecap="round" stroke-linejoin="round"/>
<path d="M168.591 195.202C168.45 192.339 168.363 189.434 167.993 186.586C167.72 184.483 166.963 182.375 164.807 181.215C162.651 180.054 160.119 180.209 157.784 180.248C154.11 180.303 150.439 180.464 146.769 180.731C140.3 181.215 133.576 181.838 127.287 183.318C121.646 184.643 117.694 187.64 117.487 193.055C117.378 196.945 117.5 200.838 117.851 204.716C117.748 208.028 119.773 228.407 119.447 235.301L123.051 236.993C133.189 241.963 146.976 242.224 155.693 240.783C164.41 239.343 169.441 237.588 169.441 237.588C169.197 236.148 169.133 234.689 169.25 233.236C169.898 226.917 168.668 220.574 168.836 214.226C169.005 207.878 168.902 201.545 168.591 195.202Z" stroke="#000F60" stroke-width="3" stroke-linecap="round" stroke-linejoin="round"/>
<path d="M14.9668 164.835C31.2385 144.304 53.4846 128.083 79.3296 117.904C83.3315 116.323 91.2047 113.524 93.3391 110.516C93.1975 110.826 95.3536 104.434 96.5351 100.924C98.2557 95.8237 99.9109 96.8922 105.405 97.5062C114.873 98.5602 125.523 100.146 134.986 97.9123C139.043 96.9454 144.956 93.7013 146.965 92.9374C148.974 92.1735 151.097 108.563 151.097 108.563C151.097 108.563 162.461 112.267 167.927 114.418C175.828 117.527 182.938 120.142 190.278 124.189C204.603 132.094 217.987 140.144 229.399 151.428C232.557 154.546 235.933 157.612 238.622 161.044C242.432 165.939 245.898 171.038 249 176.312" stroke="#000F60" stroke-width="3" stroke-linecap="round" stroke-linejoin="round"/>
<path d="M96.8782 112.141C98.8819 114.931 106.058 122.371 110.261 121.1C116.251 119.292 119.153 109.143 120.694 104.434C122.066 109.83 126.084 118.939 132.22 121.356C138.607 123.909 146.921 115.762 148.555 110.584C148.492 111.11 148.36 111.628 148.163 112.126" stroke="#000F60" stroke-width="3" stroke-linecap="round" stroke-linejoin="round"/>
<path d="M190.458 154.933C186.439 154.648 170.127 156.756 166.588 158.119" stroke="#000F60" stroke-width="3" stroke-linecap="round" stroke-linejoin="round"/>
<path d="M184.202 150.171C185.775 153.226 187.006 161.774 187.006 161.774" stroke="#000F60" stroke-width="3" stroke-linecap="round" stroke-linejoin="round"/>
<path d="M178.708 148.218C179.901 151.594 180.772 155.053 181.31 158.559C181.626 160.454 182.737 168.272 182.737 168.272" stroke="#000F60" stroke-width="3" stroke-linecap="round" stroke-linejoin="round"/>
<path d="M192.581 280.912C194.073 278.214 195.5 274.713 195.538 270.86C195.587 265.474 195.728 261.897 195.2 256.545C194.857 253.068 194.922 246.353 191.792 243.907C191.792 243.907 203.362 238.202 209.694 235.688C215.569 239.613 216.059 247.185 217.469 255.602C218.879 264.019 217.872 272.335 216.048 274.646C214.224 276.957 200.095 280.916 192.581 280.912Z" stroke="#000F60" stroke-width="3" stroke-linecap="round" stroke-linejoin="round"/>
<path d="M211.142 236.364C211.627 230.833 218.221 218.268 227.281 228.435C222.729 223.929 221.923 217.233 221.466 211.03C221.074 205.674 226.742 202.019 229.252 208.55C231.43 214.159 227.161 216.605 221.27 214.758C215.378 212.911 212.558 207.989 210.576 203.019C209.269 199.708 207.434 190.164 207.892 187.065" stroke="#000F60" stroke-width="3" stroke-linecap="round" stroke-linejoin="round"/>
<path d="M193.382 279.311C182.879 280.912 177.172 280.578 170.399 280.322C160.675 279.959 149.546 279.63 140.954 275.173C135.547 272.369 128.431 270.367 123.982 266.296C122.686 265.117 116.904 259.01 118.363 257.826" stroke="#000F60" stroke-width="3" stroke-linecap="round" stroke-linejoin="round"/>
<path d="M138.133 266.064C133.266 264.701 113.566 259.644 116.409 251.971" stroke="#000F60" stroke-width="3" stroke-linecap="round" stroke-linejoin="round"/>
<path d="M138.384 258.256C131.306 257.289 120.699 254.949 114.971 250.782C112.88 249.273 108.263 243.863 112.793 242.645" stroke="#000F60" stroke-width="3" stroke-linecap="round" stroke-linejoin="round"/>
<path d="M140.583 252.189C137.551 250.854 106.902 245.168 114.448 237.491C117.508 234.377 124.195 238.492 127.658 239.396C136.108 241.615 145.032 243.138 153.825 241.567C159.493 240.556 168.123 239.111 172.337 235.929" stroke="#000F60" stroke-width="3" stroke-linecap="round" stroke-linejoin="round"/>
<path d="M100.052 96.9648C100.052 96.9648 99.5461 79.5985 99.3174 75.165C99.0234 69.4504 98.5823 63.7213 98.5878 57.9776C98.5878 55.1493 98.2992 48.226 98.2992 48.226C90.633 48.1873 85.0738 47.6458 83.1954 46.674C81.1853 45.4835 79.7544 43.6639 79.188 41.5782C78.3985 38.0827 81.3224 34.8676 84.7962 34.0941C89.152 33.1271 93.7147 33.7411 98.0651 34.0941C98.0651 34.0941 97.8255 23.9701 99.6659 19.2224C101.8 13.7254 108.655 10.1573 115.053 9.61584C122.757 8.95832 130.843 15.814 135.503 20.5375C141.721 26.8226 145.887 34.505 149.246 42.2937C150.782 45.8376 154.457 55.3088 154.457 55.3088C152.23 55.0284 149.627 53.8584 147.379 53.1719C144.15 52.2189 140.991 51.0886 137.921 49.7876L145.718 92.8505" stroke="#000F60" stroke-width="3" stroke-linecap="round" stroke-linejoin="round"/>
<path d="M113.561 49.5361C114.536 51.7842 117.639 54.5932 119.991 54.1967" stroke="#000F60" stroke-width="3" stroke-linecap="round" stroke-linejoin="round"/>
<path d="M117.634 38.1068V40.384" stroke="#000F60" stroke-width="3" stroke-linecap="round" stroke-linejoin="round"/>
<path d="M127.886 38.7547V41.3558" stroke="#000F60" stroke-width="3" stroke-linecap="round" stroke-linejoin="round"/>
<path d="M89.3099 40.384C90.7636 40.7127 92.4352 41.1962 93.9488 41.2494" stroke="#000F60" stroke-width="3" stroke-linecap="round" stroke-linejoin="round"/>
<path d="M98.2993 48.2259C96.1213 48.2259 94.1503 48.1631 92.3644 48.076C92.5496 48.7577 92.751 49.4346 92.9851 50.1066C93.5481 51.7262 94.262 53.3013 95.1195 54.8157C95.8545 56.092 96.8455 58.2967 98.5552 58.7415H98.5933C98.5933 58.4852 98.5933 58.2241 98.5933 57.9679C98.5933 55.1492 98.2993 48.2259 98.2993 48.2259Z" fill="#000F60"/>
<path d="M147.074 26.9869C137.66 19.3964 136.876 2.47004 121.859 0.724705C118.846 0.416993 115.802 0.9962 113.196 2.37334C111.86 3.06253 110.621 3.89023 109.505 4.83905C108.552 5.63678 107.806 6.49253 106.82 7.11137C105.535 6.74578 104.176 6.62698 102.835 6.76284C101.493 6.8987 100.2 7.28612 99.0397 7.89944C95.7728 9.60126 93.7528 12.6616 92.506 15.7607C90.9978 19.5511 90.6874 23.6413 90.6384 27.6299C90.6112 29.6073 90.6112 31.5944 90.6384 33.5767C92.6856 33.6105 94.7274 33.8039 96.7366 33.9828C97.3742 35.8944 98.1939 37.7545 99.1867 39.5427C99.7856 40.616 101.49 40.2147 101.866 39.2333C104 33.6443 106.249 28.0844 108.258 22.4568C109.249 19.6817 110.033 16.747 109.891 13.8848C113.516 19.4196 118.951 23.8449 125.474 26.5735C131.997 29.3021 139.3 30.205 146.415 29.1626C147.515 29.0078 147.836 27.6009 147.074 26.9869Z" fill="#000F60"/>
<path d="M133.249 190.526L133.004 191.174" stroke="#000F60" stroke-width="3" stroke-linecap="round" stroke-linejoin="round"/>
<path d="M126.035 191.667V191.885" stroke="#000F60" stroke-width="3" stroke-linecap="round" stroke-linejoin="round"/>
<path d="M140.627 189.951H141.716" stroke="#000F60" stroke-width="3" stroke-linecap="round" stroke-linejoin="round"/>
</svg>
