<svg  width="255" height="281" viewBox="0 0 295 256" fill="none" xmlns="http://www.w3.org/2000/svg">
<path d="M294.495 103.424C293.149 82.0159 286.669 60.3025 273.309 42.259C266.659 33.1993 258.225 25.2779 248.411 18.8746C237.535 11.836 224.822 7.11955 211.786 4.30319C197.815 1.2847 183.332 0.260565 168.986 0.0584337C154.639 -0.143698 140.101 0.166237 125.765 1.18139C110.534 2.25942 95.4134 4.6266 81.4517 10.3222C71.2798 14.5528 62.0436 20.3672 54.1808 27.4899C58.6071 29.1025 62.7298 30.9171 64.5256 33.8054C66.4428 36.8868 65.1428 41.7783 61.4905 50.3532C58.1822 58.0926 53.5788 68.3204 48.1611 83.8441C48.6017 83.7913 49.0496 83.8126 49.4814 83.907C54.9548 85.1423 47.8879 106.263 44.5442 114.393C42.2577 119.958 38.9797 123.889 37.8264 129.382C37.0777 132.975 36.3796 137.957 36.2278 139.03C36.5516 139.066 36.8753 139.102 37.189 139.147C38.5921 143.844 39.6465 148.617 40.3455 153.436C45.0703 154.015 50.2655 162.68 52.1776 166.952C55.6124 174.624 58.3896 182.493 61.9458 190.165C66.7565 200.532 73.2871 213.859 86.9656 214.686C91.6422 214.959 96.3247 214.237 100.624 212.579C98.7521 206.52 98.8432 200.77 104.372 197.06C100.356 193.696 98.6054 187.259 98.8836 182.372C99.1315 178.055 101.317 172.939 105.94 171.205C105.703 165.528 106.087 158.094 106.087 152.272C106.679 152.272 107.271 152.304 107.858 152.313L107.681 151.441L106.517 140.185L106.441 140.082C104.531 139.845 102.778 139.01 101.499 137.728L100.543 137.993C96.9411 137.867 94.5383 138.604 91.1794 136.308C88.8221 134.696 86.8695 131.43 86.222 128.376L85.099 127.823C79.5648 124.544 76.9597 111.428 85.8324 110.939L87.1932 110.409C85.5997 103.869 88.3112 100.298 95.287 98.0562C96.8045 97.5621 98.4891 97.0455 100.229 96.5829C95.8535 94.7862 90.5875 92.5402 86.5154 90.1416C82.7366 87.9272 78.6088 85.2635 76.0188 82.0564C73.707 79.1816 70.7325 74.0385 74.9362 71.2401C79.6256 68.0958 84.3452 72.2912 87.522 74.6449C92.2973 78.1844 98.0591 80.7223 103.543 83.5342C108.667 86.1664 115.112 88.6279 120.636 91.2825C131.259 96.3942 140.217 99.2735 139.105 111.693C138.184 121.935 132.528 132.728 133.985 144.618V144.784C134.597 144.376 135.235 143.944 135.908 143.482C137.02 147.924 137.815 157.959 137.815 157.959C144.229 156.333 146.697 163.888 149.201 171.367L149.368 171.259C152.004 168.335 154.66 165.442 157.462 162.635C167.579 152.479 179.214 140.176 185.79 134.53C186.028 134.853 186.296 135.181 186.574 135.513C188.856 130.599 193.97 119.716 196.859 114.622C200.475 108.253 205.999 99.3723 210.734 93.1601C206.763 90.2539 191.754 82.5999 187.971 80.0396C201.396 74.9728 214.038 71.6713 227.013 70.2923C227.746 70.216 228.53 70.1441 229.299 70.0812C227.591 68.5518 226.218 66.7527 225.252 64.7764C224.706 63.6759 226.042 62.2969 227.316 63.083C232.415 66.2272 238.951 64.3452 244.677 65.3828C249.23 66.2093 253.651 69.3221 253.414 73.751C253.497 73.7767 253.578 73.8083 253.656 73.8453C254.159 74.0875 254.638 74.367 255.088 74.6808C263.738 78.9885 263.182 91.049 260.359 98.1954C260.086 98.8722 259.793 99.5415 259.479 100.203C264.371 101.34 268.276 103.936 267.497 109.025C266.404 116.212 255.862 116.778 247.915 115.615L248.072 115.642C246.188 117.432 243.922 118.87 241.405 119.873C241.128 119.983 240.83 120.042 240.527 120.046C240.224 120.05 239.924 119.998 239.644 119.895C238.081 125.029 235.982 132.216 235.43 135.617C234.388 142.058 232.85 152.47 232.85 152.47L232.709 153.049C232.977 153.004 233.245 152.955 233.503 152.901C233.503 152.901 233.048 161.283 234.707 163.053C236.366 164.822 243.099 169.62 246.134 172.301C249.999 175.755 253.621 180.387 256.757 185.327C263.428 181.631 269.44 177.071 274.594 171.798C292.299 153.377 295.967 126.853 294.495 103.424Z" fill="#CAE2FB"/>
<path d="M137.789 157.959C137.789 157.959 136.995 147.924 135.882 143.482C131.522 146.46 128.714 148.36 123.777 150.152C118.238 152.16 112.39 152.479 106.072 152.277C106.072 158.116 105.687 165.532 105.925 171.21C112.267 171.146 118.518 169.868 124.252 167.464C129.787 165.146 136.363 161.548 137.789 157.959Z" stroke="#000F60" stroke-width="3" stroke-linecap="round" stroke-linejoin="round"/>
<path d="M177.585 148.221C176.958 151.293 174.505 161.907 180.939 158.592C185.785 156.099 188.886 150.547 193.14 147.547C193.702 153.984 189.013 162.055 192.867 168.519C196.484 174.588 207.158 170.918 212.925 168.941C216.972 167.553 224.463 164.984 228.495 164.346" stroke="#000F60" stroke-width="3" stroke-linecap="round" stroke-linejoin="round"/>
<path d="M186.741 134.992C186.741 134.992 193.049 121.315 196.859 114.622C200.475 108.253 205.999 99.3723 210.734 93.1601C206.763 90.2539 191.754 82.5999 187.971 80.0396C201.396 74.9728 214.038 71.6713 227.013 70.2924C238.213 69.102 256.049 69.3401 253.616 83.8891C252.695 89.3646 249.468 95.3566 246.028 100.06C252.736 98.6581 268.994 99.1298 267.477 109.043C266.03 118.53 247.981 116.491 241.435 114.119C241.435 114.119 236.321 130.02 235.41 135.644C234.368 142.085 232.83 152.497 232.83 152.497" stroke="#000F60" stroke-width="3" stroke-linecap="round" stroke-linejoin="round"/>
<path d="M219.405 101.129C220.892 102.431 225.04 102.669 226.993 102.027" stroke="#000F60" stroke-width="3" stroke-linecap="round" stroke-linejoin="round"/>
<path d="M222.748 86.2383C222.136 87.3478 221.12 89.2119 221.12 89.2119" stroke="#000F60" stroke-width="3" stroke-linecap="round" stroke-linejoin="round"/>
<path d="M229.643 88.1562C229.026 89.2657 228.014 91.1298 228.014 91.1298" stroke="#000F60" stroke-width="3" stroke-linecap="round" stroke-linejoin="round"/>
<path d="M105.925 171.21C101.302 172.948 99.1163 178.06 98.8684 182.376C98.5902 187.263 100.341 193.7 104.357 197.065C97.3559 201.763 99.0708 209.731 102.46 217.462C105.849 225.192 112.871 237.962 112.871 242.23" stroke="#000F60" stroke-width="3" stroke-linecap="round" stroke-linejoin="round"/>
<path d="M137.789 157.959C144.841 156.162 147.128 165.487 149.93 173.59C152.732 181.694 158.433 192.038 164.458 201.121C172.451 213.159 186.716 236.157 207.355 236.121C219.941 236.121 221.58 229.424 218.929 225.871C216.279 222.317 208.928 225.129 213.081 229.347C217.235 233.565 227.999 225.682 231.247 216.73" stroke="#000F60" stroke-width="3" stroke-linecap="round" stroke-linejoin="round"/>
<path d="M149.343 171.259C151.979 168.335 154.634 165.442 157.437 162.635C167.554 152.479 179.189 140.176 185.765 134.53C188.476 138.173 193.505 142.359 201.953 146.711C210.4 151.064 223.705 154.936 233.483 152.91C233.483 152.91 233.028 161.292 234.687 163.066C236.346 164.84 243.099 169.62 246.134 172.301C254.107 179.425 261.042 191.558 264.639 201.121C266.571 206.268 268.625 215.122 269.465 220.368" stroke="#000F60" stroke-width="3" stroke-linecap="round" stroke-linejoin="round"/>
<path d="M11.5014 159.702C11.5014 159.702 8.6231 143.356 8.19818 139.52C17.7822 138.117 27.5485 137.992 37.1738 139.152C38.5769 143.848 39.6314 148.621 40.3304 153.44C45.0551 154.02 50.2503 162.684 52.1624 166.956C55.5972 174.628 58.3744 182.498 61.9306 190.17C66.7413 200.537 73.272 213.864 86.9504 214.69C91.6271 214.963 96.3096 214.241 100.609 212.584" stroke="#000F60" stroke-width="3" stroke-linecap="round" stroke-linejoin="round"/>
<path d="M40.3304 153.44C30.8759 153.44 12.589 156.975 8.19817 162.352C3.80731 167.729 8.85579 187.084 10.8236 193.467C14.5518 205.55 17.5262 218.715 23.116 230.16C26.4344 236.961 28.731 248.536 34.7153 253.652" stroke="#000F60" stroke-width="3" stroke-linecap="round" stroke-linejoin="round"/>
<path d="M21.5731 113.468C23.4499 107.552 30.5471 104.857 37.0777 101.421C40.6187 93.3353 43.9878 82.6807 49.4662 83.9025C54.9447 85.1243 47.8728 106.258 44.529 114.388C42.2425 119.954 38.9646 123.884 37.8112 129.378C36.9664 133.452 36.1874 139.237 36.1874 139.237" stroke="#000F60" stroke-width="3" stroke-linecap="round" stroke-linejoin="round"/>
<path d="M107.665 151.446L106.507 140.185" stroke="#000F60" stroke-width="3" stroke-linecap="round" stroke-linejoin="round"/>
<path d="M108.94 139.852C102.197 141.739 95.2516 132.49 101.742 128.933" stroke="#000F60" stroke-width="3" stroke-linecap="round" stroke-linejoin="round"/>
<path d="M22.944 110.449C22.944 110.449 16.3324 108.931 13.2112 106.856C8.69898 103.864 10.3683 97.9574 10.8033 93.5554C12.6346 74.9953 18.0422 59.0628 26.1258 42.1242C28.468 37.2147 31.4272 30.9351 35.1858 26.8521C39.0455 22.6522 44.3874 24.0357 50.1441 26.0705C55.9007 28.1053 62.1886 30.0502 64.5256 33.8144C66.4429 36.8958 65.1428 41.7873 61.4905 50.3622C58.1822 58.1016 53.5788 68.3294 48.1611 83.8531" stroke="#000F60" stroke-width="3" stroke-linecap="round" stroke-linejoin="round"/>
<path d="M100.533 137.993C96.931 137.867 94.5282 138.604 91.1693 136.308C88.0785 134.197 85.6706 129.234 86.0095 125.64C86.4699 120.767 102.111 111.141 105.106 114.622" stroke="#000F60" stroke-width="3" stroke-linecap="round" stroke-linejoin="round"/>
<path d="M8.74956 138.056C6.18485 127.832 8.17794 117.946 5.71441 108.037C3.52404 99.2959 0.332062 88.2056 3.69097 79.6712C5.49183 75.0985 9.25543 73.8318 13.1657 76.3832" stroke="#000F60" stroke-width="3" stroke-linecap="round" stroke-linejoin="round"/>
<path d="M86.8746 123.067C85.18 116.136 85.3924 112.668 92.095 108.733C95.98 106.451 104.772 102.382 108.728 103.343" stroke="#000F60" stroke-width="3" stroke-linecap="round" stroke-linejoin="round"/>
<path d="M6.86273 74.9728C5.34515 73.5264 5.90665 68.3204 7.18648 66.3575C8.82546 63.8286 14.3849 60.4732 17.7033 62.4227" stroke="#000F60" stroke-width="3" stroke-linecap="round" stroke-linejoin="round"/>
<path d="M87.345 111.078C85.3974 104.102 88.0684 100.374 95.2516 98.0517C101.438 96.0574 109.921 93.6587 115.87 96.1876" stroke="#000F60" stroke-width="3" stroke-linecap="round" stroke-linejoin="round"/>
<path d="M10.4745 63.6849C8.77991 58.4878 13.1556 52.0825 20.5917 52.8596" stroke="#000F60" stroke-width="3" stroke-linecap="round" stroke-linejoin="round"/>
<path d="M85.0889 127.823C79.5548 124.544 76.9496 111.428 85.8224 110.939" stroke="#000F60" stroke-width="3" stroke-linecap="round" stroke-linejoin="round"/>
<path d="M13.8132 54.0185C13.8132 48.2151 19.8127 36.779 26.4597 40.2646" stroke="#000F60" stroke-width="3" stroke-linecap="round" stroke-linejoin="round"/>
<path d="M100.325 96.6323C95.9244 94.8355 90.5926 92.5537 86.48 90.1416C82.7012 87.9271 78.5734 85.2635 75.9834 82.0563C73.6716 79.1816 70.6971 74.0385 74.9008 71.2401C79.5902 68.0958 84.3098 72.2912 87.4866 74.6449C92.2619 78.1844 98.0237 80.7223 103.507 83.5342C108.632 86.1664 115.076 88.6279 120.6 91.2825C131.223 96.3942 140.182 99.2735 139.069 111.693C138.148 121.935 132.493 132.728 133.95 144.618" stroke="#000F60" stroke-width="3" stroke-linecap="round" stroke-linejoin="round"/>
<path d="M18.1485 102.265C20.4451 81.0412 27.1325 64.5832 34.7154 44.3656C36.1267 40.6015 40.1281 32.5656 43.6033 29.9469" stroke="#000F60" stroke-width="3" stroke-linecap="round" stroke-linejoin="round"/>
<path d="M252.852 108.217C253.596 107.741 257.678 107.696 257.678 107.696" stroke="#000F60" stroke-width="3" stroke-linecap="round" stroke-linejoin="round"/>
<path d="M239.599 119.891C239.88 120 240.184 120.056 240.491 120.056C240.799 120.056 241.103 120 241.384 119.891C243.902 118.888 246.168 117.45 248.052 115.66C245.79 115.359 243.572 114.842 241.435 114.119C241.435 114.119 240.626 116.562 239.599 119.891Z" fill="#000F60"/>
<path d="M255.068 74.6808C254.618 74.367 254.139 74.0875 253.636 73.8453C253.558 73.8083 253.477 73.7767 253.393 73.751C253.631 69.3221 249.23 66.2093 244.657 65.3828C238.936 64.3452 232.395 66.2362 227.296 63.083C226.021 62.2969 224.686 63.6759 225.232 64.7764C229.39 73.2165 239.346 76.2574 249.008 76.9671C246.696 79.3343 245.8 82.7167 245.76 85.8969C245.694 91.0445 247.642 97.5756 242.543 101.425C241.303 102.355 242.806 104.309 244.212 103.514C246.226 102.372 248.099 101.046 249.802 99.5564C253.046 99.3093 256.313 99.5277 259.479 100.203C259.792 99.5415 260.086 98.8722 260.359 98.1954C263.172 91.049 263.718 78.9885 255.068 74.6808Z" fill="#000F60"/>
</svg>
