<svg width="255" height="281" viewBox="0 0 255 281" fill="none" xmlns="http://www.w3.org/2000/svg">
<path d="M251.355 53.1438C248.516 46.3707 244.343 40.2234 239.42 34.5067C229.906 23.4593 218.153 12.8304 203.93 6.75622C188.582 0.21475 171.378 -0.337822 154.734 1.22644C123.443 4.17214 91.3107 11.961 66.0077 29.2938C42.4884 45.3875 25.2664 70.5782 25.6577 97.577C25.6577 114.272 28.3037 134.398 28.8816 138.348C31.7378 157.87 43.8131 177.286 45.6423 177.391C62.4029 165.028 103.467 138.348 109.041 138.348C117.786 124.683 116.328 124.054 116.328 114.272C116.328 105.812 114.871 93.4487 116.328 81.7357L101.921 82.1457C100.72 82.2107 95.7516 83.0924 95.2329 82.2716C94.5185 81.138 99.5145 76.5834 100.238 75.8195C102.968 72.9754 105.734 70.2573 108.751 67.6488C111.868 64.955 114.812 62.2693 117.788 59.5674C121.883 55.8335 126.383 52.2987 130.723 48.7273C131.128 48.3941 131.552 48.0609 131.988 47.7237C129.358 47.2513 126.938 46.1065 125.022 44.4286C124.867 44.2816 124.762 44.0977 124.721 43.8989C124.68 43.7001 124.705 43.495 124.791 43.3082C124.878 43.1214 125.023 42.961 125.209 42.8462C125.395 42.7314 125.615 42.6671 125.841 42.6612C134.091 42.3077 140.315 36.4854 148.032 34.5351C154.338 32.9424 164.999 34.4661 166.71 41.1375L166.765 41.296C171.979 41.9867 174.559 46.001 176.652 49.7755C178.631 53.351 179.341 57.2921 179.65 61.2495C183.268 60.8839 186.885 61.3714 189.333 63.6873C193.674 67.7829 192.116 75.2285 176.084 79.7836C175.355 81.7357 173.898 88.8936 174.626 90.8458C176.084 97.353 176.084 99.9559 177.541 116.224C179.041 126.635 179.255 125.334 179.041 132.523C179.132 134.713 179.2 136.879 179.232 138.991C179.232 139.934 179.232 140.877 179.255 141.815C182.308 143.794 188.564 148.548 191.317 150.583C199.821 156.861 205.436 163.416 213.249 170.234C216.164 166.98 219.287 163.14 222.034 159.514C231.221 147.219 241.727 135.749 247.151 121.577C249.995 114.15 251.478 106.402 252.611 98.6416C253.712 91.0071 254.686 83.2711 254.959 75.5758C255.209 67.9779 254.358 60.2988 251.355 53.1438Z" fill="#CAE1FB"/>
<path d="M173.854 90.7064C173.899 86.3468 173.926 82.2879 173.908 79.0374C177.013 78.8048 180.085 78.3027 183.081 77.5382C188.996 76.0836 194.456 68.502 189.333 63.6873C185.265 59.8518 177.999 61.0301 172.816 62.8178C172.516 60.7254 172.152 58.6573 171.692 56.6542C170.382 50.905 168.312 44.0588 162.137 40.9588C151.672 35.7134 138.682 42.198 130.742 48.7273C126.383 52.2946 121.892 55.8335 117.797 59.5674C114.821 62.2693 111.882 64.955 108.76 67.6488C105.744 70.2572 102.986 72.9876 100.247 75.8195C99.5236 76.5671 94.5276 81.138 95.242 82.2716C95.7607 83.0842 100.729 82.2107 101.931 82.1457C104.433 82.0075 106.904 81.8206 109.388 81.6865C111.313 81.5809 116.618 81.6865 116.618 81.6865C116.618 81.6865 116.345 85.5952 116.354 87.6673C116.404 100.141 117.392 112.618 117.392 125.169" stroke="#000F60" stroke-width="3" stroke-linecap="round" stroke-linejoin="round"/>
<path d="M178.445 70.6432C179.309 70.4929 180.206 70.3426 181.02 70.1801" stroke="#000F60" stroke-width="3" stroke-linecap="round" stroke-linejoin="round"/>
<path d="M146.831 69.1846V65.8408" stroke="#000F60" stroke-width="3" stroke-linecap="round" stroke-linejoin="round"/>
<path d="M135.46 69.1846V65.8408" stroke="#000F60" stroke-width="3" stroke-linecap="round" stroke-linejoin="round"/>
<path d="M179.082 141.706C182.067 143.611 188.509 148.511 191.317 150.583C200.149 157.084 207.274 164.536 215.46 171.601C225.065 179.886 233.414 189.987 241.181 199.689" stroke="#000F60" stroke-width="3" stroke-linecap="round" stroke-linejoin="round"/>
<path d="M110.28 136.903C113.506 139.95 117.374 142.014 121.305 142.014" stroke="#000F60" stroke-width="3" stroke-linecap="round" stroke-linejoin="round"/>
<path d="M179.277 168.903C179.277 168.903 179.191 161.915 179.218 158.055C179.259 151.709 179.323 145.326 179.218 138.996C179.023 126.03 177.594 111.269 176.056 98.4831C175.765 96.094 173.895 84.5266 166.901 86.81C163.384 87.9599 164.171 95.7202 164.171 98.4831C164.171 102.814 164.171 108.702 164.171 112.663C164.171 116.624 163.621 121.004 163.621 121.004" stroke="#000F60" stroke-width="3" stroke-linecap="round" stroke-linejoin="round"/>
<path d="M164.444 121.772C164.444 121.772 160.558 119.294 158.174 118.489C154.206 117.157 151.131 115.767 147.008 115.239C144.551 114.922 141.043 114.751 138.645 115.67C136.907 116.336 134.136 119.204 134.386 120.545" stroke="#000F60" stroke-width="3" stroke-linecap="round" stroke-linejoin="round"/>
<path d="M153.205 127.704C153.205 127.704 148.2 124.86 145.493 123.853C142.658 122.784 138.486 120.732 135.428 121.029C130.423 121.508 124.331 127.343 124.085 131.958" stroke="#000F60" stroke-width="3" stroke-linecap="round" stroke-linejoin="round"/>
<path d="M143.919 135.063C143.919 135.063 139.824 132.422 137.23 131.812C134.782 131.243 132.225 130.528 129.654 130.67C126.014 130.869 123.462 132.645 122.165 135.761C120.741 139.182 120.176 153.44 127.943 151.847C131.747 151.067 130.268 144.672 129.331 142.429C131.197 145.078 134.764 146.492 138.177 145.395C129.122 145.472 134.991 165.755 144.433 164.731" stroke="#000F60" stroke-width="3" stroke-linecap="round" stroke-linejoin="round"/>
<path d="M2.44318 222.718C2.76169 217.302 4.28597 213.739 6.92046 208.904C9.48671 204.199 16.9306 196.244 21.2669 192.916C25.6031 189.588 32.4737 186.415 39.9222 185.196C44.9273 178.752 58.3773 167.774 67.6776 162.004C76.978 156.235 88.3805 149.003 105.348 139.804C106.79 139.024 110.294 136.883 110.294 136.883C110.294 136.883 111.918 132.82 113.024 130.934C114.17 128.976 115.008 127.335 116.664 125.185C120.459 125.502 126.801 126.055 126.801 126.055" stroke="#000F60" stroke-width="3" stroke-linecap="round" stroke-linejoin="round"/>
<path d="M142.886 165.653C142.372 170.346 142.649 178.764 142.649 178.764" stroke="#000F60" stroke-width="3" stroke-linecap="round" stroke-linejoin="round"/>
<path d="M159.462 178.773C153.724 179.813 146.239 180.512 140.925 178.773C140.925 183.559 141.38 190.482 141.657 195.528C141.917 200.469 141.384 209.343 142.567 210.314C143.75 211.285 147.823 211.362 150.808 211.196C158.383 210.761 165.932 207.994 172.48 205.04C174.6 204.089 176.447 203.325 178.44 202.237C179.428 201.696 181.625 200.152 182.321 199.303C183.304 198.121 183.077 194.61 183.077 193.03C183.077 189.735 182.622 180.812 182.208 177.566C181.543 172.455 181.53 167.928 179.669 167.928C177.548 172.678 166.232 177.55 159.462 178.773Z" stroke="#000F60" stroke-width="3" stroke-linecap="round" stroke-linejoin="round"/>
<path d="M135.415 159.449C134.441 162.602 117.351 184.558 125.25 185.676C126.487 185.85 128.849 183.872 130.027 184.534C132.193 185.753 128.712 190.836 128.13 191.888C126.678 194.525 121.783 201.956 128.226 198.856C129.486 201.16 125.755 207.99 123.503 209.765" stroke="#000F60" stroke-width="3" stroke-linecap="round" stroke-linejoin="round"/>
<path d="M72.6691 201.091C73.0786 202.988 72.2687 205.966 70.849 207.328C68.574 209.517 64.7747 210.253 59.0188 210.314C67.9006 210.866 65.58 215.803 61.9582 219.391C58.3363 222.978 49.5456 222.889 49.5456 221.105C49.5456 217.485 57.6629 215.592 61.7534 215.454C64.761 215.352 74.0386 213.828 71.4223 220.532C77.2237 215.657 81.3142 213.824 88.0256 212.069C94.7369 210.314 99.0641 213.016 99.8558 218.606C102.9 215.007 105.475 212.971 110.075 210.931C113.647 209.351 118.361 209.253 122.133 209.765C127.234 210.456 133.008 212.13 137.731 213.8" stroke="#000F60" stroke-width="3" stroke-linecap="round" stroke-linejoin="round"/>
<path d="M142.572 210.314C140.356 211.403 138.299 213.186 136.598 214.897C134.655 216.843 133.49 220.5 132.048 222.897C128.994 228.008 126.587 234.741 126.383 240.555C126.26 244.078 128.007 246.316 129.477 249.461C130.783 252.265 130.364 252.013 128.703 254.17C126.246 257.368 125.919 261.845 125.091 265.526C124.458 268.342 123.935 271.121 124.635 273.981C125.027 275.607 126.105 277.077 125.878 278.804C125.841 278.365 126.051 278.13 126.142 277.703" stroke="#000F60" stroke-width="3" stroke-linecap="round" stroke-linejoin="round"/>
<path d="M182.326 199.303C186.18 206.99 186.63 218.476 187.522 227.313C188.291 234.887 189.16 242.558 189.52 250.16C189.629 252.419 188.182 261.455 190.038 262.755" stroke="#000F60" stroke-width="3" stroke-linecap="round" stroke-linejoin="round"/>
<path d="M186.503 212.65C192.486 211.492 197.678 211.675 203.93 211.675C209.986 211.675 214.395 213.186 219.159 216.693C223.814 220.098 226.639 225.53 227.658 230.661C228.295 233.888 230.056 242.391 226.88 244.561C223.704 246.731 221.78 243.655 220.014 239.397" stroke="#000F60" stroke-width="3" stroke-linecap="round" stroke-linejoin="round"/>
<path d="M192.013 236.756C193.596 238.511 194.435 240.708 194.384 242.96C194.247 245.236 192.008 250.68 193.71 252.565C198.652 258.083 203.429 245.203 203.443 241.924C203.456 238.645 203.497 236.098 202.797 234.343" stroke="#000F60" stroke-width="3" stroke-linecap="round" stroke-linejoin="round"/>
<path d="M200.344 250.786C200.772 252.553 201.295 254.926 204.053 254.966C206.514 255.003 208.27 251.83 209.012 250.176C211.223 245.24 211.228 240.941 210.636 235.602C210.332 232.855 209.144 230.113 208.33 227.781" stroke="#000F60" stroke-width="3" stroke-linecap="round" stroke-linejoin="round"/>
<path d="M213.266 222.718C220.214 230.588 222.822 244.204 216.115 253.731C214.295 256.303 208.148 257.709 209.012 250.176" stroke="#000F60" stroke-width="3" stroke-linecap="round" stroke-linejoin="round"/>
<path d="M127.17 255.617C120.8 257.981 114.179 261.041 107.464 262.524C103.443 263.372 99.3478 263.908 95.2238 264.125C91.3835 264.364 86.3785 265.628 82.5973 264.592" stroke="#000F60" stroke-width="3" stroke-linecap="round" stroke-linejoin="round"/>
<path d="M147.29 204.301V204.991" stroke="#000F60" stroke-width="3" stroke-linecap="round" stroke-linejoin="round"/>
<path d="M173.89 86.745C174.028 86.8864 174.205 86.9929 174.404 87.0539C174.602 87.1148 174.815 87.128 175.021 87.0922C175.227 87.0564 175.419 86.9728 175.578 86.8498C175.736 86.7268 175.856 86.5688 175.924 86.3915C177.057 83.8398 177.911 81.196 178.472 78.4971C176.967 78.7472 175.448 78.9276 173.922 79.0375C173.922 81.2762 173.913 83.905 173.89 86.745Z" fill="#000F60"/>
<path d="M174.773 67.1531C174.905 65.4426 175.201 63.7523 175.355 62.0499C176.758 61.6698 178.195 61.3979 179.65 61.2373C179.341 57.2799 178.631 53.3388 176.652 49.7633C174.559 45.9888 171.979 41.9745 166.765 41.2838L166.71 41.1254C164.999 34.4539 154.338 32.9302 148.032 34.5229C140.297 36.4691 134.091 42.2914 125.841 42.649C125.615 42.6549 125.396 42.7192 125.209 42.834C125.023 42.9488 124.878 43.1092 124.791 43.296C124.705 43.4828 124.68 43.6879 124.721 43.8867C124.762 44.0855 124.867 44.2694 125.022 44.4164C130 48.7517 136.334 48.2925 142.354 47.8415C146.276 47.549 151.24 45.3428 155.025 44.3189C158.274 43.4413 160.699 44.1889 163.17 46.3504C161.805 50.2834 161.882 53.4729 163.848 57.4303C165.814 61.3877 170.1 63.9758 172.616 67.661C172.747 67.8514 172.943 67.9991 173.175 68.0822C173.408 68.1653 173.664 68.1794 173.906 68.1225C174.148 68.0655 174.363 67.9405 174.519 67.7659C174.675 67.5913 174.764 67.3764 174.773 67.1531Z" fill="#000F60"/>
<path d="M193.587 239.425C192.632 241.018 191.18 241.347 189.379 241.66" stroke="#000F60" stroke-width="3" stroke-linecap="round" stroke-linejoin="round"/>
<path d="M137.862 84.5121C143.348 84.5121 146.759 82.0348 146.759 79.5538" stroke="#000F60" stroke-width="3" stroke-linecap="round" stroke-linejoin="round"/>
<path d="M68.9891 80.3201C68.6477 76.9424 67.3149 63.2265 67.3149 63.2265L62.5566 38.6202C61.4404 32.8075 60.5379 28.0193 60.3988 27.1116C59.9072 23.7977 58.8915 16.0201 57.4198 14.6369C55.948 13.2537 47.5495 12.7691 34.9942 14.2504C22.4389 15.7316 13.3883 17.8593 11.3616 19.8891C9.74894 21.531 10.5353 24.4814 10.8729 26.7473C11.4217 30.3523 16.2916 57.9209 16.2916 57.9209L19.7345 76.1715C19.7345 76.1715 20.7758 87.2704 21.9086 88.7508C23.6177 90.4216 38.8902 89.7024 44.3244 89.367L60.5867 87.4644C65.7183 86.6919 69.5239 85.6188 68.9891 80.3201Z" fill="#F2F2F2" stroke="#000F60" stroke-width="3" stroke-linecap="round" stroke-linejoin="round"/>
<path d="M20.0526 28.4142L51.7957 24.3744" stroke="#000F60" stroke-width="3" stroke-linecap="round" stroke-linejoin="round"/>
<path d="M21.9034 40.01L53.6465 35.9701" stroke="#000F60" stroke-width="3" stroke-linecap="round" stroke-linejoin="round"/>
<path d="M23.7542 51.6058L55.4973 47.566" stroke="#000F60" stroke-width="3" stroke-linecap="round" stroke-linejoin="round"/>
<path d="M40.0336 61.3652L57.348 59.1617" stroke="#000F60" stroke-width="3" stroke-linecap="round" stroke-linejoin="round"/>
<path d="M40.4436 82.4212C41.7089 86.1465 42.0777 92.1496 42.0133 96.0159C40.5235 94.565 38.7194 93.4168 36.7243 92.6496C35.1009 93.8784 33.7617 95.3976 32.107 96.5927C31.8337 91.9817 31.1409 87.689 29.6281 83.251" fill="#FFFCF9"/>
<path d="M40.8091 66.4423L40.911 66.2209C40.7485 66.1419 40.5759 66.0557 40.3944 65.9651L40.3901 65.9629C39.8682 65.7023 39.2757 65.4063 38.6872 65.1672C37.866 64.8336 36.9175 64.549 35.8686 64.5335L35.8679 64.5335L35.8642 64.5335L35.8743 64.7816L35.8642 64.5335C35.6236 64.5306 35.3749 64.5251 35.1183 64.5194L35.1257 64.7668L35.1183 64.5194L35.108 64.5192C33.8801 64.4918 32.4782 64.4606 31.0915 64.7167L31.0913 64.7167C28.636 65.1718 26.7067 66.3894 25.2315 68.02L25.2309 68.0206L25.2264 68.0257L25.2259 68.0262C24.1993 69.1762 23.6043 70.3861 23.2232 71.803L23.223 71.8036L23.2219 71.8079L23.2217 71.8085C22.7546 73.5789 22.8623 75.4388 23.5363 77.179C24.3908 79.458 25.9411 81.405 27.9559 82.7514C29.8227 87.3736 30.8249 91.9024 31.4034 96.8294C31.4616 97.3251 31.8185 97.7453 32.3073 97.927C32.7939 98.1078 33.3411 98.028 33.7271 97.7186C34.6691 96.9637 35.5006 96.1267 36.275 95.3402L36.275 95.3402L36.39 95.2234L36.39 95.2234C36.937 94.6676 37.4568 94.1395 37.9958 93.645C39.7497 94.3173 41.36 95.28 42.7418 96.4843C43.1592 96.848 43.7585 96.9471 44.2624 96.7502C44.7677 96.5528 45.0998 96.0865 45.0781 95.5538C44.9101 91.434 44.3141 85.5761 43.6276 81.4094C43.9133 81.1324 44.1826 80.834 44.4326 80.5127L44.4335 80.5115L44.4338 80.5111C46.1383 78.3133 46.4175 75.6541 46.186 72.8632C46.1827 72.8227 46.1773 72.7824 46.1698 72.7422C45.6382 69.8783 43.8157 67.6275 40.9107 66.2207L40.8091 66.4423ZM40.8091 66.4423C43.6457 67.8161 45.407 70.0002 45.922 72.7745C45.9279 72.8064 45.9322 72.8384 45.9349 72.8706C46.1642 75.6355 45.8831 78.2234 44.2307 80.3541L35.8779 64.7817C36.8826 64.7965 37.7971 65.0691 38.6016 65.3959C39.1805 65.6312 39.7654 65.9233 40.2898 66.1852L40.2899 66.1852C40.4711 66.2757 40.645 66.3626 40.8091 66.4423ZM39.6773 68.4971L39.6771 68.497L39.6756 68.4963L39.6755 68.4962C39.4564 68.3898 39.2488 68.2861 39.0492 68.1864L39.0488 68.1863C38.5514 67.9378 38.1054 67.7153 37.6333 67.5234C36.9977 67.2652 36.4445 67.1214 35.9178 67.1133C35.6218 67.1098 35.3357 67.1039 35.0586 67.0981L35.058 67.0981C33.8316 67.0726 32.7851 67.0518 31.7265 67.2472L39.6773 68.4971ZM39.6773 68.4971C41.798 69.5239 43.0208 71.06 43.406 73.0378C43.6076 75.5602 43.2955 77.4785 42.1455 78.9621C40.8945 80.5693 38.8596 81.4783 36.4449 81.9545C35.7388 82.0937 35.0484 82.1558 34.3798 82.1479C33.3159 82.0446 32.1566 81.7908 30.8516 81.3953C28.6966 80.4465 27.0165 78.6621 26.1705 76.401L26.1705 76.401M39.6773 68.4971L26.1705 76.401M26.1705 76.401L26.1693 76.3981M26.1705 76.401L26.1693 76.3981M26.1693 76.3981L26.1648 76.3865C25.6774 75.1312 25.5971 73.7875 25.9362 72.5003C26.2355 71.3887 26.6702 70.5305 27.4022 69.7095M26.1693 76.3981L27.4022 69.7095M27.4022 69.7095C28.5527 68.4391 29.9701 67.5728 31.7264 67.2472L27.4022 69.7095ZM34.1802 93.5701C34.0574 93.6948 33.9358 93.818 33.8149 93.9398C33.3084 90.6727 32.573 87.514 31.4736 84.3343C32.3877 84.5751 33.3492 84.7112 34.3455 84.729C35.0087 84.7859 35.6623 84.7973 36.3093 84.7563C38.0005 84.6492 39.5788 84.1893 41.1174 83.3423C41.5424 86.2769 41.9122 89.7623 42.1289 92.808C40.8638 92.0344 39.4978 91.4048 38.0623 90.9365C37.5791 90.7789 37.0485 90.8727 36.6778 91.1838C35.8189 91.9047 35.0437 92.6925 34.3175 93.4307L34.3141 93.4341L34.3141 93.4341L34.1802 93.5701C34.1802 93.5701 34.1802 93.5701 34.1802 93.5701Z" fill="#000F60" stroke="#000F60" stroke-width="0.5" stroke-linecap="round" stroke-linejoin="round"/>
</svg>
